# xmcd
#
# Track frame offsets:
#	150
#	23857
#	48823
#	84287
#	102099
#	138860
#	175047
#	231186
#	260935
#	304045
#
# Disc length: 4444 seconds
#
# Revision: 1
# Processed by: cddbd v1.5PL3 Copyright (c) Steve Scherf et al.
# Submitted via: EasyCDDAExtractor 6.5.0.3
#
DISCID=75115a0a
DTITLE=John Mayall - 70th Birthday Celebration
DYEAR=2003
DGENRE=Blues
TTITLE0=No Big Hurry
TTITLE1=Grits Ain't Groceries
TTITLE2=Jacksboro Highway
TTITLE3=Southside Story
TTITLE4=Kid's Got The Blues
TTITLE5=Dirty Water
TTITLE6=Somebody's Acting Like A Child
TTITLE7=Blues For The Lost Days
TTITLE8=Walking On Sunset
TTITLE9=Oh Pretty Woman
EXTD=
EXTT0=
EXTT1=
EXTT2=
EXTT3=
EXTT4=
EXTT5=
EXTT6=
EXTT7=
EXTT8=
EXTT9=
PLAYORDER=
